<?xml version="1.0" encoding="utf-8"?>
<!-- Generated by Mocodo 4.2.8 -->
<svg width="589" height="441" viewBox="0 0 589 441" xmlns="http://www.w3.org/2000/svg">
<rect x="0" y="0" width="589" height="441" fill="none" stroke="none" stroke-width="0"/>

<!-- Association LIER -->
<g>
	<line x1="55" y1="254" x2="55" y2="85" stroke="#726f83" stroke-width="2"/>
	<line x1="172" y1="85" x2="55" y2="85" stroke="#726f83" stroke-width="2"/>
	<g>
		<path d="M60 60 a14 14 90 0 1 14 14 V85 h-38 V74 a14 14 90 0 1 14 -14" fill="#b2bba4" stroke="#b2bba4" stroke-width="0"/>
		<path d="M74 85 v11 a14 14 90 0 1 -14 14 H50 a14 14 90 0 1 -14 -14 V85 H38" fill="#ccd6ba" stroke="#ccd6ba" stroke-width="0"/>
		<rect x="36" y="60" width="38" height="50" fill="none" rx="14" stroke="#85956b" stroke-width="2"/>
		<line x1="36" y1="85" x2="74" y2="85" stroke="#85956b" stroke-width="1"/>
		<text x="44" y="77.75" fill="#27360c" font-family="Verdana" font-size="12">Lier</text>
	</g>
	<text x="60" y="187" fill="#726f83" font-family="Verdana" font-size="12">0,1</text>
	<text x="80" y="102" fill="#726f83" font-family="Verdana" font-size="12">0,1</text>
</g>

<!-- Association APPARTENIR -->
<g>
	<line x1="423" y1="85" x2="309" y2="85" stroke="#726f83" stroke-width="2"/>
	<line x1="172" y1="85" x2="309" y2="85" stroke="#726f83" stroke-width="2"/>
	<g>
		<path d="M334 60 a14 14 90 0 1 14 14 V85 h-78 V74 a14 14 90 0 1 14 -14" fill="#b2bba4" stroke="#b2bba4" stroke-width="0"/>
		<path d="M348 85 v11 a14 14 90 0 1 -14 14 H284 a14 14 90 0 1 -14 -14 V85 H78" fill="#ccd6ba" stroke="#ccd6ba" stroke-width="0"/>
		<rect x="270" y="60" width="78" height="50" fill="none" rx="14" stroke="#85956b" stroke-width="2"/>
		<line x1="270" y1="85" x2="348" y2="85" stroke="#85956b" stroke-width="1"/>
		<text x="277" y="77.75" fill="#27360c" font-family="Verdana" font-size="12">Appartenir</text>
	</g>
	<text x="354" y="102" fill="#726f83" font-family="Verdana" font-size="12">0,N</text>
	<text x="243" y="102" fill="#726f83" font-family="Verdana" font-size="12">1,1</text>
</g>

<!-- Association POSSEDER2 -->
<g>
	<line x1="172" y1="381" x2="172" y2="254" stroke="#726f83" stroke-width="2"/>
	<line x1="172" y1="85" x2="172" y2="254" stroke="#726f83" stroke-width="2"/>
	<g>
		<path d="M193 229 a14 14 90 0 1 14 14 V254 h-70 V243 a14 14 90 0 1 14 -14" fill="#b2bba4" stroke="#b2bba4" stroke-width="0"/>
		<path d="M207 254 v11 a14 14 90 0 1 -14 14 H151 a14 14 90 0 1 -14 -14 V254 H70" fill="#ccd6ba" stroke="#ccd6ba" stroke-width="0"/>
		<rect x="137" y="229" width="70" height="50" fill="none" rx="14" stroke="#85956b" stroke-width="2"/>
		<line x1="137" y1="254" x2="207" y2="254" stroke="#85956b" stroke-width="1"/>
		<text x="145" y="246.75" fill="#27360c" font-family="Verdana" font-size="12">Posséder</text>
	</g>
	<text x="177" y="322" fill="#726f83" font-family="Verdana" font-size="12">0,N</text>
	<text x="177" y="178" fill="#726f83" font-family="Verdana" font-size="12">0,1</text>
</g>

<!-- Association ECRIT -->
<g>
	<line x1="309" y1="254" x2="423" y2="254" stroke="#726f83" stroke-width="2"/>
	<line x1="528" y1="254" x2="423" y2="254" stroke="#726f83" stroke-width="2"/>
	<g>
		<path d="M430 229 a14 14 90 0 1 14 14 V254 h-42 V243 a14 14 90 0 1 14 -14" fill="#b2bba4" stroke="#b2bba4" stroke-width="0"/>
		<path d="M444 254 v11 a14 14 90 0 1 -14 14 H416 a14 14 90 0 1 -14 -14 V254 H42" fill="#ccd6ba" stroke="#ccd6ba" stroke-width="0"/>
		<rect x="402" y="229" width="42" height="50" fill="none" rx="14" stroke="#85956b" stroke-width="2"/>
		<line x1="402" y1="254" x2="444" y2="254" stroke="#85956b" stroke-width="1"/>
		<text x="409" y="246.75" fill="#27360c" font-family="Verdana" font-size="12">Écrit</text>
	</g>
	<text x="366" y="271" fill="#726f83" font-family="Verdana" font-size="12">0,N</text>
	<text x="450" y="271" fill="#726f83" font-family="Verdana" font-size="12">1,1</text>
</g>

<!-- Association POSSEDER -->
<g>
	<line x1="172" y1="381" x2="55" y2="381" stroke="#726f83" stroke-width="2"/>
	<line x1="55" y1="254" x2="55" y2="381" stroke="#726f83" stroke-width="2"/>
	<g>
		<path d="M76 356 a14 14 90 0 1 14 14 V381 h-70 V370 a14 14 90 0 1 14 -14" fill="#b2bba4" stroke="#b2bba4" stroke-width="0"/>
		<path d="M90 381 v11 a14 14 90 0 1 -14 14 H34 a14 14 90 0 1 -14 -14 V381 H70" fill="#ccd6ba" stroke="#ccd6ba" stroke-width="0"/>
		<rect x="20" y="356" width="70" height="50" fill="none" rx="14" stroke="#85956b" stroke-width="2"/>
		<line x1="20" y1="381" x2="90" y2="381" stroke="#85956b" stroke-width="1"/>
		<text x="28" y="373.75" fill="#27360c" font-family="Verdana" font-size="12">Posséder</text>
	</g>
	<text x="106" y="398" fill="#726f83" font-family="Verdana" font-size="12">0,N</text>
	<text x="60" y="330" fill="#726f83" font-family="Verdana" font-size="12">0,1</text>
</g>

<!-- Association APPARTENIR2 -->
<g>
	<line x1="172" y1="381" x2="309" y2="381" stroke="#726f83" stroke-width="2"/>
	<line x1="423" y1="381" x2="309" y2="381" stroke="#726f83" stroke-width="2"/>
	<g>
		<path d="M334 356 a14 14 90 0 1 14 14 V381 h-78 V370 a14 14 90 0 1 14 -14" fill="#b2bba4" stroke="#b2bba4" stroke-width="0"/>
		<path d="M348 381 v11 a14 14 90 0 1 -14 14 H284 a14 14 90 0 1 -14 -14 V381 H78" fill="#ccd6ba" stroke="#ccd6ba" stroke-width="0"/>
		<rect x="270" y="356" width="78" height="50" fill="none" rx="14" stroke="#85956b" stroke-width="2"/>
		<line x1="270" y1="381" x2="348" y2="381" stroke="#85956b" stroke-width="1"/>
		<text x="277" y="373.75" fill="#27360c" font-family="Verdana" font-size="12">Appartenir</text>
	</g>
	<text x="216" y="398" fill="#726f83" font-family="Verdana" font-size="12">1,1</text>
	<text x="353" y="398" fill="#726f83" font-family="Verdana" font-size="12">0,N</text>
</g>

<!-- Entity APPAREIL -->
<g>
	<g>
		<rect x="106" y="9" width="132" height="25" fill="#97b8ff" stroke="none" stroke-width="0" opacity="1"/>
		<rect x="106" y="34" width="132" height="127" fill="#c0d4ff" stroke="none" stroke-width="0" opacity="1"/>
		<rect x="106" y="9" width="132" height="152" fill="none" stroke="#578dff" stroke-width="2" opacity="1"/>
		<line x1="106" y1="34" x2="238" y2="34" stroke="#578dff" stroke-width="1"/>
	</g>
	<text x="147" y="26.75" fill="#131114" font-family="Verdana" font-size="12">Appareil</text>
	<text x="111" y="51.8" fill="#3e3c42" font-family="Verdana" font-size="12">CodeAppareil</text>
	<line x1="111" y1="54" x2="192" y2="54" stroke="#3e3c42" stroke-width="1"/>
	<text x="111" y="68.8" fill="#3e3c42" font-family="Verdana" font-size="12">IMEI</text>
	<text x="111" y="85.8" fill="#3e3c42" font-family="Verdana" font-size="12">Statut</text>
	<text x="111" y="102.8" fill="#3e3c42" font-family="Verdana" font-size="12">État</text>
	<text x="111" y="119.8" fill="#3e3c42" font-family="Verdana" font-size="12">Date de préparation</text>
	<text x="111" y="136.8" fill="#3e3c42" font-family="Verdana" font-size="12">Date d’attribution</text>
	<text x="111" y="153.8" fill="#3e3c42" font-family="Verdana" font-size="12">Commentaire</text>
</g>

<!-- Entity MODELE -->
<g>
	<g>
		<rect x="381" y="34" width="84" height="25" fill="#97b8ff" stroke="none" stroke-width="0" opacity="1"/>
		<rect x="381" y="59" width="84" height="77" fill="#c0d4ff" stroke="none" stroke-width="0" opacity="1"/>
		<rect x="381" y="34" width="84" height="102" fill="none" stroke="#578dff" stroke-width="2" opacity="1"/>
		<line x1="381" y1="59" x2="465" y2="59" stroke="#578dff" stroke-width="1"/>
	</g>
	<text x="401" y="51.75" fill="#131114" font-family="Verdana" font-size="12">Modèle</text>
	<text x="386" y="76.8" fill="#3e3c42" font-family="Verdana" font-size="12">CodeModèle</text>
	<line x1="386" y1="79" x2="460" y2="79" stroke="#3e3c42" stroke-width="1"/>
	<text x="386" y="93.8" fill="#3e3c42" font-family="Verdana" font-size="12">Marque</text>
	<text x="386" y="110.8" fill="#3e3c42" font-family="Verdana" font-size="12">Référence</text>
	<text x="386" y="127.8" fill="#3e3c42" font-family="Verdana" font-size="12">Stockage</text>
</g>

<!-- Entity LIGNE -->
<g>
	<g>
		<rect x="9" y="195" width="92" height="25" fill="#97b8ff" stroke="none" stroke-width="0" opacity="1"/>
		<rect x="9" y="220" width="92" height="93" fill="#c0d4ff" stroke="none" stroke-width="0" opacity="1"/>
		<rect x="9" y="195" width="92" height="118" fill="none" stroke="#578dff" stroke-width="2" opacity="1"/>
		<line x1="9" y1="220" x2="101" y2="220" stroke="#578dff" stroke-width="1"/>
	</g>
	<text x="39" y="212.75" fill="#131114" font-family="Verdana" font-size="12">Ligne</text>
	<text x="14" y="237.8" fill="#3e3c42" font-family="Verdana" font-size="12">CodeLigne</text>
	<line x1="14" y1="240" x2="78" y2="240" stroke="#3e3c42" stroke-width="1"/>
	<text x="14" y="254.8" fill="#3e3c42" font-family="Verdana" font-size="12">Numéro</text>
	<text x="14" y="271.8" fill="#3e3c42" font-family="Verdana" font-size="12">Profil</text>
	<text x="14" y="288.8" fill="#3e3c42" font-family="Verdana" font-size="12">Statut</text>
	<text x="14" y="305.8" fill="#3e3c42" font-family="Verdana" font-size="12">Commentaire</text>
</g>

<!-- Entity UTILISATEUR -->
<g>
	<g>
		<rect x="257" y="186" width="104" height="25" fill="#97b8ff" stroke="none" stroke-width="0" opacity="1"/>
		<rect x="257" y="211" width="104" height="111" fill="#c0d4ff" stroke="none" stroke-width="0" opacity="1"/>
		<rect x="257" y="186" width="104" height="136" fill="none" stroke="#578dff" stroke-width="2" opacity="1"/>
		<line x1="257" y1="211" x2="361" y2="211" stroke="#578dff" stroke-width="1"/>
	</g>
	<text x="278" y="203.75" fill="#131114" font-family="Verdana" font-size="12">Utilisateur</text>
	<text x="262" y="228.8" fill="#3e3c42" font-family="Verdana" font-size="12">CodeUtilisateur</text>
	<line x1="262" y1="231" x2="355" y2="231" stroke="#3e3c42" stroke-width="1"/>
	<text x="262" y="245.8" fill="#3e3c42" font-family="Verdana" font-size="12">Email</text>
	<text x="262" y="262.8" fill="#3e3c42" font-family="Verdana" font-size="12">Mot de passe</text>
	<text x="262" y="279.8" fill="#3e3c42" font-family="Verdana" font-size="12">Nom</text>
	<text x="262" y="296.8" fill="#3e3c42" font-family="Verdana" font-size="12">Prénom</text>
	<text x="262" y="313.8" fill="#3e3c42" font-family="Verdana" font-size="12">Rôle</text>
</g>

<!-- Entity HISTORIQUE -->
<g>
	<g>
		<rect x="476" y="203" width="104" height="25" fill="#97b8ff" stroke="none" stroke-width="0" opacity="1"/>
		<rect x="476" y="228" width="104" height="77" fill="#c0d4ff" stroke="none" stroke-width="0" opacity="1"/>
		<rect x="476" y="203" width="104" height="102" fill="none" stroke="#578dff" stroke-width="2" opacity="1"/>
		<line x1="476" y1="228" x2="580" y2="228" stroke="#578dff" stroke-width="1"/>
	</g>
	<text x="497" y="220.75" fill="#131114" font-family="Verdana" font-size="12">Historique</text>
	<text x="481" y="245.8" fill="#3e3c42" font-family="Verdana" font-size="12">CodeHistorique</text>
	<line x1="481" y1="248" x2="574" y2="248" stroke="#3e3c42" stroke-width="1"/>
	<text x="481" y="262.8" fill="#3e3c42" font-family="Verdana" font-size="12">Opération</text>
	<text x="481" y="279.8" fill="#3e3c42" font-family="Verdana" font-size="12">Table</text>
	<text x="481" y="296.8" fill="#3e3c42" font-family="Verdana" font-size="12">Contenu</text>
</g>

<!-- Entity AGENT -->
<g>
	<g>
		<rect x="133" y="330" width="78" height="25" fill="#97b8ff" stroke="none" stroke-width="0" opacity="1"/>
		<rect x="133" y="355" width="78" height="77" fill="#c0d4ff" stroke="none" stroke-width="0" opacity="1"/>
		<rect x="133" y="330" width="78" height="102" fill="none" stroke="#578dff" stroke-width="2" opacity="1"/>
		<line x1="133" y1="355" x2="211" y2="355" stroke="#578dff" stroke-width="1"/>
	</g>
	<text x="154" y="347.75" fill="#131114" font-family="Verdana" font-size="12">Agent</text>
	<text x="138" y="372.8" fill="#3e3c42" font-family="Verdana" font-size="12">CodeAgent</text>
	<line x1="138" y1="375" x2="205" y2="375" stroke="#3e3c42" stroke-width="1"/>
	<text x="138" y="389.8" fill="#3e3c42" font-family="Verdana" font-size="12">Mail</text>
	<text x="138" y="406.8" fill="#3e3c42" font-family="Verdana" font-size="12">Nom</text>
	<text x="138" y="423.8" fill="#3e3c42" font-family="Verdana" font-size="12">Prénom</text>
</g>

<!-- Entity SERVICE -->
<g>
	<g>
		<rect x="380" y="347" width="86" height="25" fill="#97b8ff" stroke="none" stroke-width="0" opacity="1"/>
		<rect x="380" y="372" width="86" height="43" fill="#c0d4ff" stroke="none" stroke-width="0" opacity="1"/>
		<rect x="380" y="347" width="86" height="68" fill="none" stroke="#578dff" stroke-width="2" opacity="1"/>
		<line x1="380" y1="372" x2="466" y2="372" stroke="#578dff" stroke-width="1"/>
	</g>
	<text x="401" y="364.75" fill="#131114" font-family="Verdana" font-size="12">Service</text>
	<text x="385" y="389.8" fill="#3e3c42" font-family="Verdana" font-size="12">CodeService</text>
	<line x1="385" y1="392" x2="461" y2="392" stroke="#3e3c42" stroke-width="1"/>
	<text x="385" y="406.8" fill="#3e3c42" font-family="Verdana" font-size="12">Titre</text>
</g>
</svg>